<?xml version="1.0" standalone="no"?>
<!DOCTYPE svg PUBLIC "-//W3C//DTD SVG 20010904//EN"
 "http://www.w3.org/TR/2001/REC-SVG-20010904/DTD/svg10.dtd">
<svg version="1.0" xmlns="http://www.w3.org/2000/svg"
 width="190.000000pt" height="190.000000pt" viewBox="0 0 190.000000 190.000000"
 preserveAspectRatio="xMidYMid meet">
<metadata>
Created by potrace 1.15, written by Peter Selinger 2001-2017
</metadata>
<g transform="translate(0.000000,190.000000) scale(0.100000,-0.100000)"
fill="#000000" stroke="none">
<path d="M160 1767 c-49 -16 -133 -102 -148 -153 -34 -117 16 -228 132 -292
28 -16 93 -17 806 -17 741 0 777 1 813 19 192 95 179 370 -20 442 -50 17
-1527 18 -1583 1z m1560 -122 c36 -19 60 -62 60 -110 0 -26 -9 -45 -34 -73
l-34 -37 -734 -3 c-503 -2 -745 0 -770 8 -43 12 -75 49 -84 95 -8 43 12 83 55
112 l34 23 739 0 c641 0 743 -2 768 -15z"/>
<path d="M177 1176 c-65 -18 -116 -61 -149 -126 -32 -62 -36 -114 -12 -183 19
-57 95 -131 150 -146 26 -7 284 -11 794 -11 709 0 757 2 795 19 94 43 145 118
145 216 0 95 -47 171 -135 218 -40 22 -42 22 -790 24 -590 2 -760 -1 -798 -11z
m1527 -120 c68 -28 95 -101 61 -166 -33 -63 0 -61 -825 -58 l-750 3 -32 33
c-27 27 -33 40 -33 76 0 55 28 96 76 113 53 19 1458 18 1503 -1z"/>
<path d="M133 565 c-163 -81 -176 -303 -24 -410 l43 -30 776 -3 c552 -2 788 0
815 8 52 15 122 82 143 135 11 31 15 64 12 109 -5 77 -37 132 -107 181 l-43
30 -781 3 -782 2 -52 -25z m1613 -127 c20 -19 28 -39 32 -77 4 -47 2 -53 -31
-86 l-35 -35 -760 0 -760 0 -30 28 c-40 37 -50 88 -27 136 33 69 -11 66 827
63 l758 -2 26 -27z"/>
</g>
</svg>
